<?xml version="1.0" encoding="utf-8" ?><svg xmlns="http://www.w3.org/2000/svg" xmlns:xlink="http://www.w3.org/1999/xlink" width="960" height="960" viewBox="0 0 960 960"><path fill="#F45062" d="M318.723 296.983C331.485 292.466 349.569 280.373 361.925 273.242L444.875 225.313C454.378 219.787 469.018 210.036 478.911 206.346C480.972 205.577 482.509 205.55 484.668 205.855C496.97 211.108 510.655 220.302 522.475 227.165L596.235 269.65C612.96 279.357 629.802 290.46 647.593 298.024C645.463 300.571 643.464 303.133 640.682 304.998C630.91 311.55 620.208 316.859 609.989 322.686L557.557 352.875L515.64 377.068C506.266 382.527 496.84 388.686 486.86 392.979C485.485 394.011 484.408 394.618 484.134 396.437C487.564 397.64 490.736 400.225 493.759 402.238C490.424 402.799 487.147 402.398 483.81 402.051L483.696 407.977C483.698 411.499 483.724 415.021 483.775 418.542L483.946 527.602C483.999 536.745 483.721 545.91 483.649 555.055C483.612 559.763 483.307 564.713 483.875 569.385C483.348 571.671 483.192 575.492 481.973 577.417C481.572 579.675 481.502 582.366 480.346 584.363L479.528 584.911C468.861 580.071 458.807 573.693 448.662 567.861L404.436 542.728L357.382 516.361C346.5 510.302 335.34 504.433 324.941 497.574C321.591 495.652 318.804 493.519 316.834 490.13C315.463 483.979 316.263 476.291 316.261 469.974L316.272 433.432L316.294 356.304C316.247 342.471 315.826 328.627 316.045 314.795C316.101 311.252 315.791 300.608 317.201 297.792C317.476 297.242 318.18 297.182 318.723 296.983Z"/><path fill="#F995A3" d="M318.723 296.983C331.485 292.466 349.569 280.373 361.925 273.242L444.875 225.313C454.378 219.787 469.018 210.036 478.911 206.346C480.972 205.577 482.509 205.55 484.668 205.855C496.97 211.108 510.655 220.302 522.475 227.165L596.235 269.65C612.96 279.357 629.802 290.46 647.593 298.024C645.463 300.571 643.464 303.133 640.682 304.998C630.91 311.55 620.208 316.859 609.989 322.686L557.557 352.875L515.64 377.068C506.266 382.527 496.84 388.686 486.86 392.979C485.485 394.011 484.408 394.618 484.134 396.437C481.694 396.634 479.288 396.771 476.838 396.8L479.464 394.175C477.497 392.985 475.715 391.819 473.986 390.283C471.627 386.907 466.949 387.193 463.47 385.298C455.497 380.956 447.576 376.279 439.816 371.566C432.836 367.326 423.01 360.099 415.43 357.89C414.818 357.585 414.336 357.121 413.809 356.689C411.67 356.716 409.374 357.095 407.647 355.611L407.584 353.902C405.381 352.393 403.01 351.153 400.675 349.86L400.794 349.162C397.373 347.296 395.215 345.166 392.718 342.251C382.516 341.909 386.516 337.974 380.116 336.132C378.948 335.795 377.817 335.531 376.723 334.978C370.226 331.691 364.014 327.185 357.71 323.482C354.416 321.547 350.615 320.177 347.453 318.117C346.752 317.66 346.142 317.05 345.578 316.437C343.659 313.471 337.344 311.45 334.081 310.015C332.226 310.228 330.43 309.937 328.591 309.713C326.744 308.966 324.488 307.956 323.153 306.443C321.727 304.828 321.656 303.401 321.873 301.339C320.605 299.963 319.684 298.584 318.723 296.983Z"/><path fill="#FDCDD3" d="M484.668 205.855C496.97 211.108 510.655 220.302 522.475 227.165L596.235 269.65C612.96 279.357 629.802 290.46 647.593 298.024C645.463 300.571 643.464 303.133 640.682 304.998C630.91 311.55 620.208 316.859 609.989 322.686L557.557 352.875L515.64 377.068C506.266 382.527 496.84 388.686 486.86 392.979L485.517 392.111C483.545 389.065 484.211 384.153 484.266 380.645C485.03 370.22 484.437 359.461 484.418 348.998L484.278 287.986L484.535 237.447C484.556 227.894 484.909 218.194 484.041 208.671C484.073 207.547 484.316 206.917 484.668 205.855Z"/><path fill="#180102" d="M484.041 208.671C484.909 218.194 484.556 227.894 484.535 237.447L484.278 287.986L484.418 348.998C484.437 359.461 485.03 370.22 484.266 380.645L483.307 380.875C483.365 330.74 482.353 280.692 483.262 230.544C483.353 225.537 482.228 212.94 484.041 208.671Z"/><path fill="#772F42" d="M483.307 380.875L484.266 380.645C484.211 384.153 483.545 389.065 485.517 392.111L486.86 392.979C485.485 394.011 484.408 394.618 484.134 396.437C481.694 396.634 479.288 396.771 476.838 396.8L479.464 394.175C480.065 393.728 480.679 393.288 481.221 392.768C483.975 390.131 483.292 384.411 483.307 380.875Z"/><path fill="#D2637C" d="M321.873 301.339C325.921 304.228 330.163 306.958 334.081 310.015C332.226 310.228 330.43 309.937 328.591 309.713C326.744 308.966 324.488 307.956 323.153 306.443C321.727 304.828 321.656 303.401 321.873 301.339Z"/><path fill="#772F42" d="M408.34 352.593C410.393 353.818 412.1 354.979 413.809 356.689C411.67 356.716 409.374 357.095 407.647 355.611L407.584 353.902L408.34 352.593Z"/><path fill="#772F42" d="M400.794 349.162L408.34 352.593L407.584 353.902C405.381 352.393 403.01 351.153 400.675 349.86L400.794 349.162Z"/><path fill="#180102" d="M482.326 418.461L483.775 418.542L483.946 527.602C483.999 536.745 483.721 545.91 483.649 555.055C483.612 559.763 483.307 564.713 483.875 569.385C483.348 571.671 483.192 575.492 481.973 577.417L482.326 418.461Z"/><path fill="#C33048" d="M427.973 425.463C432.665 424.366 437.316 420.102 441.403 417.585C448.024 413.507 454.873 409.342 462.02 406.328L462.924 407.885C461.362 408.541 459.814 408.994 458.755 410.389L458.851 411.157L458.99 412.154C457.566 413.331 455.941 413.73 454.207 414.275C452.954 415.477 451.64 416.862 450.122 417.72C448.052 418.89 440.197 421.131 440.064 423.404C440.047 423.701 440.061 424.217 440.067 424.528C436.352 426.927 432.116 424.098 429.327 428.556L427.973 425.463Z"/><path fill="#B61B28" d="M458.851 411.157L458.99 412.154C457.566 413.331 455.941 413.73 454.207 414.275C453.551 413.914 453.363 413.706 452.902 413.144L453.181 412.45C454.95 411.51 456.892 411.411 458.851 411.157Z"/><path fill="#B61B28" d="M413.164 431.823C416.231 431.704 420.316 432.124 422.871 430.22C423.193 429.38 423.502 428.468 423.938 427.681C424.68 426.344 426.612 425.945 427.973 425.463L429.327 428.556C429.178 429.222 429.273 429.305 428.837 429.746C427.179 431.42 422.045 432.916 419.713 434.064C414.102 436.827 409.126 440.127 404.014 443.706C401.721 445.311 398.852 447.765 395.889 447.614C394.601 447.548 393.966 446.974 393.1 446.106C393.999 442.652 407.838 438.471 411.134 436.321C412.692 435.305 412.752 434.148 413.06 432.43L413.164 431.823Z"/><path fill="#B61B28" d="M476.838 396.8C479.288 396.771 481.694 396.634 484.134 396.437C487.564 397.64 490.736 400.225 493.759 402.238C490.424 402.799 487.147 402.398 483.81 402.051L483.696 407.977C483.378 406.24 483.436 404.564 482.95 402.841L482.218 402.782L481.202 403.87C479.346 402.261 477.855 402.036 475.412 402.18C473.196 402.311 470.64 402.827 469.022 404.463C468.874 404.613 468.75 404.786 468.614 404.947C468.632 405.134 468.654 405.321 468.668 405.509C468.714 406.113 468.688 406.593 468.606 407.186C467.112 408.119 464.661 407.91 462.924 407.885L462.02 406.328C467.272 403.482 472.145 400.512 476.838 396.8Z"/><path fill="#772F42" d="M343.966 317.596L345.578 316.437C346.142 317.05 346.752 317.66 347.453 318.117C350.615 320.177 354.416 321.547 357.71 323.482C364.014 327.185 370.226 331.691 376.723 334.978C377.817 335.531 378.948 335.795 380.116 336.132C386.516 337.974 382.516 341.909 392.718 342.251C395.215 345.166 397.373 347.296 400.794 349.162L400.675 349.86C391.015 345.273 382.126 339.743 372.94 334.309C363.373 328.65 353.635 323.076 343.966 317.596Z"/><path fill="#772F42" d="M415.43 357.89C423.01 360.099 432.836 367.326 439.816 371.566C447.576 376.279 455.497 380.956 463.47 385.298C466.949 387.193 471.627 386.907 473.986 390.283C473.639 390.321 473.293 390.375 472.945 390.4C471.147 390.526 469.302 389.485 467.726 388.714C459.529 384.704 451.821 379.555 443.893 375.035C437.538 371.412 430.839 368.433 424.615 364.571C421.373 362.603 418.301 360.368 415.43 357.89Z"/><path fill="#BB4760" d="M334.081 310.015C337.344 311.45 343.659 313.471 345.578 316.437L343.966 317.596C342.526 317.767 340.197 317.696 338.992 316.853C339.076 316.083 339.169 315.314 339.27 314.547C336.049 312.339 332.011 311.661 328.591 309.713C330.43 309.937 332.226 310.228 334.081 310.015Z"/><path fill="#7D181A" d="M481.202 403.87L482.218 402.782L482.95 402.841C483.436 404.564 483.378 406.24 483.696 407.977C483.698 411.499 483.724 415.021 483.775 418.542L482.326 418.461C481.578 413.727 481.542 408.66 481.202 403.87Z"/><path fill="#EF282D" d="M316.834 490.13C318.162 489.524 318.715 489.013 320.17 489.321C322.234 491.701 323.311 494.858 324.941 497.574C321.591 495.652 318.804 493.519 316.834 490.13Z"/><path fill="#C33048" d="M348.243 470.801L348.867 471.55L351.747 473.697C350.303 474.853 348.983 475.808 347.326 476.636C343.447 479.107 330.964 487.967 326.56 487.431C325.227 487.268 325.115 487.023 324.412 485.999C324.319 484.874 324.299 484.358 324.861 483.365C326.616 482.081 328.672 482.25 330.72 481.811C332.224 481.489 332.699 480.905 333.485 479.659C333.75 479.24 333.989 478.803 334.274 478.397C336.521 475.2 338.55 477.268 341.577 476.404C343.79 475.772 344 474.291 345.117 472.583C345.901 471.383 346.936 471.119 348.243 470.801Z"/><path fill="#B61B28" d="M348.867 471.55L351.747 473.697C350.303 474.853 348.983 475.808 347.326 476.636L346.914 475.517C347.134 473.842 347.889 472.895 348.867 471.55Z"/><path fill="#C33048" d="M383.773 453.257L385.466 453.831C376.813 459.286 365.134 467.898 355.673 471.011L354.642 467.882C359.951 465.097 369.142 462.115 372.482 457.083C376.739 450.67 379.741 456.289 383.773 453.257Z"/><path fill="#B61B28" d="M383.773 453.257C383.661 451.695 383.414 451.019 384.54 449.7C385.278 448.836 386.382 448.57 387.473 448.642C388.617 448.717 389.501 449.419 390.179 450.276C390.209 451.356 390.25 451.873 389.261 452.604C388.276 453.333 386.639 453.591 385.466 453.831L383.773 453.257Z"/><path fill="#BB4760" d="M354.642 467.882L355.673 471.011C354.289 471.844 352.966 472.632 351.747 473.697L348.867 471.55L348.243 470.801C350.398 469.944 352.53 468.849 354.642 467.882Z"/><defs><linearGradient id="gradient_0" gradientUnits="userSpaceOnUse" x1="470.84708" y1="761.85822" x2="652.06177" y2="502.22867"><stop offset="0" stop-color="#951C1F"/><stop offset="1" stop-color="#E82226"/></linearGradient></defs><path fill="url(#gradient_0)" d="M493.759 402.238C532.256 425.398 571.55 447.43 610.521 469.799C622.041 476.411 634.011 482.511 645.361 489.373C646.485 490.307 647.659 491.207 648.656 492.278C648.826 496.152 649.104 500.325 648.331 504.15L648.325 619.632C648.333 638.459 648.997 657.49 648.311 676.286C648.257 677.757 648.419 680.568 647.374 681.622C641.152 687.896 632.018 692.099 624.391 696.394L602.106 709.13L541.41 744.007C523.951 754.026 506.47 763.89 489.571 774.849C487.279 776.431 484.604 777.731 482.182 779.128C429.327 747.673 376.061 716.913 322.399 686.857C320.334 685.673 317.732 684.483 317.064 682.017C321.744 677.622 328.843 674.76 334.438 671.64C342.35 667.206 350.236 662.724 358.093 658.195C399.622 634.28 440.874 608.646 483.567 586.92C482.171 586.361 480.858 585.613 479.528 584.911L480.346 584.363C481.502 582.366 481.572 579.675 481.973 577.417C483.192 575.492 483.348 571.671 483.875 569.385C483.307 564.713 483.612 559.763 483.649 555.055C483.721 545.91 483.999 536.745 483.946 527.602L483.775 418.542C483.724 415.021 483.698 411.499 483.696 407.977L483.81 402.051C487.147 402.398 490.424 402.799 493.759 402.238Z"/><path fill="#7D181A" d="M483.567 586.92C484.729 587.937 485.929 588.728 486.008 590.393C486.516 600.989 485.696 611.984 485.586 622.613C485.208 656.598 485.03 690.584 485.051 724.571C485.06 739.364 484.395 754.503 485.044 769.256C485.105 770.645 485.128 772.107 485.93 773.287C487.112 773.818 488.485 774.176 489.571 774.849C487.279 776.431 484.604 777.731 482.182 779.128C429.327 747.673 376.061 716.913 322.399 686.857C320.334 685.673 317.732 684.483 317.064 682.017C321.744 677.622 328.843 674.76 334.438 671.64C342.35 667.206 350.236 662.724 358.093 658.195C399.622 634.28 440.874 608.646 483.567 586.92Z"/><path fill="#EF282D" d="M493.759 402.238C532.256 425.398 571.55 447.43 610.521 469.799C622.041 476.411 634.011 482.511 645.361 489.373C643.962 490.96 642.561 492.611 640.874 493.901C636.724 497.076 631.761 499.342 627.183 501.837C620.273 505.603 613.323 509.393 606.609 513.498L603.284 515.216C600.805 516.536 598.596 517.837 596.409 519.608L593.93 520.857C584.663 525.086 576.358 530.944 567.262 535.483L563.384 537.713C561.4 538.816 559.305 539.84 557.518 541.246C556.203 542.087 554.92 542.967 553.49 543.604C548.003 545.246 542.647 549.401 537.734 552.326C528.138 558.038 518.311 563.327 508.598 568.827C501.46 572.869 494.914 578.18 486.803 580.167C485.656 576.609 484.757 573.016 483.875 569.385C483.307 564.713 483.612 559.763 483.649 555.055C483.721 545.91 483.999 536.745 483.946 527.602L483.775 418.542C483.724 415.021 483.698 411.499 483.696 407.977L483.81 402.051C487.147 402.398 490.424 402.799 493.759 402.238Z"/><path fill="#B61B28" d="M645.361 489.373C646.485 490.307 647.659 491.207 648.656 492.278C648.826 496.152 649.104 500.325 648.331 504.15C648.27 502.373 648.629 499.624 647.549 498.153C643.877 497.362 636.154 502.329 632.97 504.369C625.818 508.953 624.858 509.533 616.625 511.557C615.578 513.429 614.53 515.893 612.307 516.579C611.036 516.971 609.75 516.429 608.741 515.67C607.936 515.064 607.267 514.256 606.609 513.498C613.323 509.393 620.273 505.603 627.183 501.837C631.761 499.342 636.724 497.076 640.874 493.901C642.561 492.611 643.962 490.96 645.361 489.373Z"/><path fill="#B61B28" d="M593.93 520.857C594.731 521.625 595.297 523.211 595.301 524.327C595.304 524.972 595.225 525.496 594.725 525.897C591.109 528.806 586.104 530.435 581.991 532.559C578.325 534.453 575.294 536.881 572.101 539.452C570.509 538.111 568.941 536.715 567.262 535.483C576.358 530.944 584.663 525.086 593.93 520.857Z"/><path fill="#B61B28" d="M563.384 537.713C564.529 538.741 565.111 539.547 565.857 540.895C565.833 542.092 565.754 542.819 564.715 543.594C563.439 544.546 561.571 545.048 560.09 545.59C559.055 544.26 558.312 542.727 557.518 541.246C559.305 539.84 561.4 538.816 563.384 537.713Z"/><path fill="#B61B28" d="M603.284 515.216C604.306 516.34 605.154 517.645 605.094 519.215C605.064 519.987 604.67 520.684 604.116 521.224C603.143 522.172 601.558 522.475 600.256 522.296C598.45 522.048 597.469 521.017 596.409 519.608C598.596 517.837 600.805 516.536 603.284 515.216Z"/><path fill="#C33048" d="M553.49 543.604C554.92 542.967 556.203 542.087 557.518 541.246C558.312 542.727 559.055 544.26 560.09 545.59L555.95 548.252C555.242 546.614 554.419 545.127 553.49 543.604Z"/><path fill="#B61B28" d="M587.175 645.656C587.319 645.673 587.464 645.682 587.606 645.709C589.484 646.071 592.079 647.178 593.07 648.906C593.508 649.671 593.127 650.06 592.877 650.837C591.965 650.835 591.043 650.844 590.132 650.795C588.418 650.702 587.597 650.476 586.431 649.214C586.241 647.626 586.577 647.108 587.175 645.656Z"/></svg>